<svg width="26" height="26" viewBox="0 0 26 26" fill="none" xmlns="http://www.w3.org/2000/svg">
<path d="M24.4941 13C25.3258 13 26.009 13.6765 25.9129 14.5026C25.603 17.1662 24.4746 19.6826 22.6647 21.6945C20.5174 24.0813 17.5629 25.5892 14.3702 25.9276C11.1775 26.266 7.97251 25.411 5.37262 23.5273C2.77273 21.6435 0.961856 18.8644 0.288837 15.7251C-0.384182 12.5859 0.128263 9.30863 1.72746 6.52468C3.32666 3.74072 5.89947 1.64701 8.9503 0.646867C12.0011 -0.353279 15.3141 -0.18911 18.2511 1.10775C20.7267 2.20086 22.7875 4.03351 24.1621 6.33604C24.5884 7.05014 24.2425 7.94722 23.484 8.28815V8.28815C22.7254 8.62908 21.8431 8.28227 21.3921 7.5835C20.34 5.95349 18.8291 4.65528 17.0346 3.86287C14.778 2.86646 12.2325 2.74032 9.88851 3.50876C7.54448 4.2772 5.56771 5.88585 4.33901 8.02484C3.11031 10.1638 2.71658 12.6818 3.23368 15.0938C3.75078 17.5058 5.14212 19.6411 7.13968 21.0884C9.13725 22.5357 11.5997 23.1926 14.0528 22.9326C16.5058 22.6726 18.7758 21.5141 20.4256 19.6802C21.7376 18.2218 22.5836 16.4183 22.875 14.5002C22.9999 13.678 23.6624 13 24.4941 13V13Z" fill="#3900C7"/>
</svg>
